<svg width="23" height="20" viewBox="0 0 23 20" fill="none" xmlns="http://www.w3.org/2000/svg">
<path d="M5.16658 2.83301C2.91142 2.83301 1.08325 4.66118 1.08325 6.91634V13.0839C1.08325 15.339 2.91143 17.1672 5.16659 17.1672H13.739C15.9942 17.1672 17.8224 15.339 17.8224 13.0839V6.91634C17.8224 4.66118 15.9942 2.83301 13.739 2.83301H5.16658Z" fill="url(#paint0_linear_242_1671)" stroke="white" stroke-width="1.5"/>
<path fill-rule="evenodd" clip-rule="evenodd" d="M6 7.2915C6.34518 7.2915 6.625 7.57133 6.625 7.9165V12.0832C6.625 12.4283 6.34518 12.7082 6 12.7082C5.65482 12.7082 5.375 12.4283 5.375 12.0832V7.9165C5.375 7.57133 5.65482 7.2915 6 7.2915Z" fill="white"/>
<path fill-rule="evenodd" clip-rule="evenodd" d="M9.33325 7.2915C9.67843 7.2915 9.95825 7.57133 9.95825 7.9165V12.0832C9.95825 12.4283 9.67843 12.7082 9.33325 12.7082C8.98807 12.7082 8.70825 12.4283 8.70825 12.0832V7.9165C8.70825 7.57133 8.98807 7.2915 9.33325 7.2915Z" fill="white"/>
<path fill-rule="evenodd" clip-rule="evenodd" d="M12.6665 7.2915C13.0117 7.2915 13.2915 7.57133 13.2915 7.9165V12.0832C13.2915 12.4283 13.0117 12.7082 12.6665 12.7082C12.3213 12.7082 12.0415 12.4283 12.0415 12.0832V7.9165C12.0415 7.57133 12.3213 7.2915 12.6665 7.2915Z" fill="white"/>
<path d="M18.9167 6.3335H18.5001C17.6256 6.3335 16.9167 7.04238 16.9167 7.91683V12.0835C16.9167 12.9579 17.6256 13.6668 18.5001 13.6668H18.9167C20.2514 13.6668 21.3334 12.5848 21.3334 11.2502V8.75016C21.3334 7.41547 20.2514 6.3335 18.9167 6.3335Z" fill="url(#paint1_linear_242_1671)" stroke="white" stroke-width="1.5"/>
<defs>
<linearGradient id="paint0_linear_242_1671" x1="9.45278" y1="4.37444" x2="9.45278" y2="15.6258" gradientUnits="userSpaceOnUse">
<stop stop-color="#5DE616"/>
<stop offset="1" stop-color="#388A0E"/>
</linearGradient>
<linearGradient id="paint1_linear_242_1671" x1="19.1251" y1="7.44322" x2="19.1251" y2="12.5571" gradientUnits="userSpaceOnUse">
<stop stop-color="#5DE616"/>
<stop offset="1" stop-color="#388A0E"/>
</linearGradient>
</defs>
</svg>
