<svg width="24" height="24" viewBox="0 0 24 24" fill="none" xmlns="http://www.w3.org/2000/svg">
<path d="M17.9095 10.7199H14.8195V3.5199C14.8195 1.8399 13.9095 1.4999 12.7995 2.7599L11.9995 3.6699L5.22952 11.3699C4.29952 12.4199 4.68952 13.2799 6.08952 13.2799H9.17952V20.4799C9.17952 22.1599 10.0895 22.4999 11.1995 21.2399L11.9995 20.3299L18.7695 12.6299C19.6995 11.5799 19.3095 10.7199 17.9095 10.7199Z" fill="#292D32"/>
<path d="M17.9095 10.7199H14.8195V3.5199C14.8195 1.8399 13.9095 1.4999 12.7995 2.7599L11.9995 3.6699L5.22952 11.3699C4.29952 12.4199 4.68952 13.2799 6.08952 13.2799H9.17952V20.4799C9.17952 22.1599 10.0895 22.4999 11.1995 21.2399L11.9995 20.3299L18.7695 12.6299C19.6995 11.5799 19.3095 10.7199 17.9095 10.7199Z" fill="url(#paint0_linear_334_1983)"/>
<path d="M17.9095 10.7199H14.8195V3.5199C14.8195 1.8399 13.9095 1.4999 12.7995 2.7599L11.9995 3.6699L5.22952 11.3699C4.29952 12.4199 4.68952 13.2799 6.08952 13.2799H9.17952V20.4799C9.17952 22.1599 10.0895 22.4999 11.1995 21.2399L11.9995 20.3299L18.7695 12.6299C19.6995 11.5799 19.3095 10.7199 17.9095 10.7199Z" stroke="white" stroke-width="1.67"/>
<defs>
<linearGradient id="paint0_linear_334_1983" x1="11.9995" y1="3.23245" x2="11.9995" y2="20.7674" gradientUnits="userSpaceOnUse">
<stop stop-color="#FFC107"/>
<stop offset="1" stop-color="#FFAE1B"/>
</linearGradient>
</defs>
</svg>
