<svg width="82" height="82" viewBox="0 0 82 82" fill="none" xmlns="http://www.w3.org/2000/svg">
<path d="M41.5335 47.9169C41.3757 53.6809 39.3669 58.7759 36.032 63.3957C33.3959 67.0223 30.1659 70.1775 26.4785 72.7279C25.2399 73.5959 24.8848 73.6096 23.6599 72.7416C17.9868 68.7188 13.3928 63.7713 10.6223 57.3023C9.07834 53.6895 8.31667 49.912 8.73524 45.9801C9.07823 42.5476 10.4979 39.3116 12.7913 36.7348C15.0846 34.158 18.1341 32.3724 21.5036 31.6335C30.7329 29.5441 39.9244 35.8622 41.2831 45.2441C41.4031 46.1242 41.4512 47.0231 41.5335 47.9169ZM17.3555 47.1723C17.3582 48.696 17.8126 50.1846 18.6611 51.4502C19.5097 52.7157 20.7143 53.7012 22.1228 54.2822C23.5313 54.8633 25.0805 55.0137 26.5745 54.7146C28.0685 54.4154 29.4403 53.6801 30.5164 52.6015C31.5926 51.5229 32.3249 50.1495 32.6208 48.6548C32.9166 47.1602 32.7627 45.6114 32.1785 44.2042C31.5944 42.7969 30.6061 41.5945 29.3387 40.7488C28.0714 39.903 26.5817 39.452 25.058 39.4527C24.0454 39.4538 23.0429 39.6544 22.1078 40.0429C21.1727 40.4315 20.3232 41.0004 19.608 41.7173C18.8928 42.4341 18.3257 43.2848 17.9392 44.2208C17.5527 45.1568 17.3544 46.1597 17.3555 47.1723Z" fill="white"/>
<path d="M73.2749 21.6493C73.2114 27.029 71.3656 31.3623 68.3686 35.2599C66.3508 37.8726 63.9412 40.1577 61.2253 42.0343C60.2407 42.7205 59.7655 42.7325 58.7808 42.0343C53.8968 38.569 49.9735 34.3026 47.8978 28.5867C46.5923 24.9944 46.1617 21.313 47.4243 17.5921C49.3508 11.9225 55.0616 8.157 60.968 8.65964C67.1283 9.17428 72.1409 13.7443 73.093 19.7365C73.2131 20.493 73.2389 21.2667 73.2749 21.6493ZM65.5707 22.2274C65.5761 21.4928 65.4365 20.7644 65.1599 20.0838C64.8833 19.4033 64.4752 18.784 63.9589 18.2614C63.4426 17.7389 62.8282 17.3234 62.151 17.0387C61.4738 16.754 60.7471 16.6057 60.0125 16.6023C59.27 16.5865 58.5319 16.7187 57.841 16.9912C57.1502 17.2636 56.5205 17.6709 55.9887 18.1893C55.4569 18.7077 55.0337 19.3267 54.7436 20.0104C54.4536 20.694 54.3026 21.4286 54.2994 22.1712C54.2962 22.9138 54.4409 23.6497 54.7251 24.3358C55.0092 25.0219 55.4271 25.6446 55.9545 26.1675C56.4818 26.6904 57.1079 27.1031 57.7964 27.3815C58.4849 27.6599 59.2219 27.7984 59.9645 27.789C60.6989 27.7962 61.4276 27.6577 62.1081 27.3813C62.7886 27.1049 63.4076 26.6962 63.929 26.1789C64.4505 25.6616 64.8641 25.046 65.1459 24.3677C65.4277 23.6894 65.5721 22.9619 65.5707 22.2274Z" fill="white"/>
<path d="M68.4837 60.3661C66.5761 62.8535 64.1659 63.6666 61.6218 62.7077C60.8618 62.4386 60.1723 62.0016 59.6044 61.4293C59.0365 60.857 58.605 60.164 58.3418 59.402C58.1908 58.9885 57.9901 58.8736 57.5578 58.8684C55.8715 58.8479 54.1526 58.9679 52.5057 58.6832C48.5207 57.997 45.6249 54.2881 45.6335 50.1641C45.6438 46.131 48.5687 42.4942 52.4097 41.7376C53.3189 41.5661 54.0634 41.9967 54.2967 42.8458C54.5163 43.6641 54.0428 44.443 53.1559 44.714C52.9844 44.7655 52.8248 44.8015 52.6619 44.8512C51.5619 45.1965 50.5945 45.8714 49.8907 46.7845C49.1868 47.6976 48.7805 48.8049 48.7265 49.9565C48.6133 53.2948 51.1831 55.8526 54.6415 55.8355C55.6708 55.8355 56.7001 55.7994 57.7294 55.8063C58.0725 55.8063 58.244 55.6999 58.3847 55.362C59.3917 52.9517 61.7367 51.5348 64.2002 51.8092C66.7854 52.0991 68.7033 53.9381 69.2214 56.5783C69.2889 56.8961 69.4641 57.1808 69.7172 57.3845C71.2304 58.4687 72.3614 60.0042 72.9478 61.771C73.5343 63.5377 73.5462 65.4447 72.9817 67.2186C72.4172 68.9925 71.3054 70.5419 69.8057 71.6448C68.3061 72.7476 66.4957 73.3472 64.6342 73.3574C54.7645 73.3745 44.8947 73.3745 35.025 73.3574C33.946 73.3574 33.2735 72.7621 33.2683 71.8272C33.2632 70.8922 33.9442 70.2833 35.0679 70.2833C44.8313 70.2833 54.5941 70.2833 64.3563 70.2833C67.1868 70.2833 69.4461 68.6072 70.1117 65.9945C70.6435 63.833 70.0517 61.9975 68.4837 60.3661Z" fill="white"/>
<path d="M20.44 47.1585C20.442 46.2437 20.7155 45.3501 21.2258 44.5909C21.7361 43.8317 22.4602 43.241 23.3064 42.8936C24.1527 42.5462 25.083 42.4577 25.9795 42.6395C26.8761 42.8212 27.6985 43.2649 28.3427 43.9144C28.9869 44.5639 29.4239 45.3899 29.5982 46.2879C29.7726 47.1859 29.6766 48.1155 29.3223 48.9588C28.968 49.8022 28.3713 50.5215 27.608 51.0255C26.8446 51.5296 25.9488 51.7957 25.034 51.7903C24.4283 51.7878 23.8289 51.6661 23.2702 51.4319C22.7115 51.1978 22.2043 50.856 21.7777 50.4259C21.3511 49.9958 21.0134 49.4858 20.7839 48.9252C20.5544 48.3646 20.4375 47.7643 20.44 47.1585Z" fill="white"/>
<path d="M62.4883 22.1983C62.4924 22.5239 62.4321 22.8472 62.3111 23.1495C62.19 23.4519 62.0104 23.7274 61.7827 23.9602C61.555 24.193 61.2835 24.3786 60.984 24.5064C60.6844 24.6341 60.3625 24.7015 60.0369 24.7046C59.7058 24.7119 59.3766 24.6538 59.0681 24.5337C58.7595 24.4137 58.4777 24.2339 58.2387 24.0048C57.9997 23.7757 57.8082 23.5016 57.6752 23.1984C57.5422 22.8952 57.4703 22.5688 57.4636 22.2377C57.4617 21.5687 57.7229 20.9257 58.1908 20.4475C58.6587 19.9693 59.2959 19.6943 59.9648 19.6817C60.2961 19.6801 60.6244 19.744 60.9308 19.8699C61.2372 19.9957 61.5157 20.1809 61.7503 20.4148C61.9848 20.6487 62.1708 20.9267 62.2974 21.2328C62.4241 21.5389 62.489 21.867 62.4883 22.1983Z" fill="white"/>
</svg>
