<svg width="24" height="24" viewBox="0 0 24 24" fill="none" xmlns="http://www.w3.org/2000/svg">
<path d="M11.9199 22C17.4199 22 21.9199 17.5 21.9199 12C21.9199 6.5 17.4199 2 11.9199 2C6.41992 2 1.91992 6.5 1.91992 12C1.91992 17.5 6.41992 22 11.9199 22Z" fill="#D9D9D9"/>
<path d="M11.9199 22C17.4199 22 21.9199 17.5 21.9199 12C21.9199 6.5 17.4199 2 11.9199 2C6.41992 2 1.91992 6.5 1.91992 12C1.91992 17.5 6.41992 22 11.9199 22Z" fill="url(#paint0_linear_334_2047)"/>
<path d="M11.9199 22C17.4199 22 21.9199 17.5 21.9199 12C21.9199 6.5 17.4199 2 11.9199 2C6.41992 2 1.91992 6.5 1.91992 12C1.91992 17.5 6.41992 22 11.9199 22Z" stroke="white" stroke-width="1.5" stroke-linecap="round" stroke-linejoin="round"/>
<path d="M10.9732 13.3337C10.9732 12.6759 11.0321 12.2029 11.15 11.9144C11.2676 11.6263 11.5172 11.3118 11.8989 10.9707C12.2318 10.6784 12.4855 10.4246 12.6599 10.2092C12.8346 9.99419 12.922 9.74864 12.922 9.47256C12.922 9.13964 12.8104 8.86356 12.5873 8.64431C12.3638 8.42507 12.0531 8.31545 11.6553 8.31545C11.2411 8.31545 10.9264 8.44131 10.7111 8.69303C10.496 8.94476 10.3439 9.20054 10.2546 9.46038L9 8.92446C9.17052 8.40477 9.48314 7.95411 9.93787 7.57247C10.3926 7.19082 10.9651 7 11.6553 7C12.5079 7 13.1636 7.23759 13.6226 7.71278C14.0812 8.18764 14.3105 8.758 14.3105 9.42384C14.3105 9.82984 14.2233 10.1771 14.0489 10.4655C13.8742 10.7536 13.6 11.0803 13.2265 11.4457C12.8286 11.8274 12.5871 12.1176 12.502 12.3164C12.4166 12.5155 12.3739 12.8546 12.3739 13.3337H10.9732ZM11.6553 16.2569C11.3873 16.2569 11.158 16.1616 10.9673 15.9709C10.7763 15.7799 10.6809 15.5504 10.6809 15.2825C10.6809 15.0145 10.7763 14.785 10.9673 14.5941C11.158 14.4034 11.3873 14.3081 11.6553 14.3081C11.9232 14.3081 12.1527 14.4034 12.3437 14.5941C12.5343 14.785 12.6297 15.0145 12.6297 15.2825C12.6297 15.5504 12.5343 15.7799 12.3437 15.9709C12.1527 16.1616 11.9232 16.2569 11.6553 16.2569Z" fill="white"/>
<defs>
<linearGradient id="paint0_linear_334_2047" x1="11.9199" y1="3.23332" x2="11.9199" y2="20.7667" gradientUnits="userSpaceOnUse">
<stop stop-color="#FFC107"/>
<stop offset="1" stop-color="#FFAE1B"/>
</linearGradient>
</defs>
</svg>
