<svg width="82" height="82" viewBox="0 0 82 82" fill="none" xmlns="http://www.w3.org/2000/svg">
<path d="M44.4167 71.75V64.9167H51.25V71.75H44.4167ZM37.5833 64.9167V47.8333H44.4167V64.9167H37.5833ZM64.9167 54.6667V41H71.75V54.6667H64.9167ZM58.0833 41V34.1667H64.9167V41H58.0833ZM17.0833 47.8333V41H23.9167V47.8333H17.0833ZM10.25 41V34.1667H17.0833V41H10.25ZM41 17.0833V10.25H47.8333V17.0833H41ZM15.375 25.625H25.625V15.375H15.375V25.625ZM13.6667 30.75C12.6986 30.75 11.8866 30.422 11.2306 29.766C10.5746 29.11 10.2477 28.2991 10.25 27.3333V13.6667C10.25 12.6986 10.578 11.8866 11.234 11.2306C11.89 10.5746 12.7009 10.2477 13.6667 10.25H27.3333C28.3014 10.25 29.1134 10.578 29.7694 11.234C30.4254 11.89 30.7523 12.7009 30.75 13.6667V27.3333C30.75 28.3014 30.422 29.1134 29.766 29.7694C29.11 30.4254 28.2991 30.7523 27.3333 30.75H13.6667ZM15.375 66.625H25.625V56.375H15.375V66.625ZM13.6667 71.75C12.6986 71.75 11.8866 71.422 11.2306 70.766C10.5746 70.11 10.2477 69.2991 10.25 68.3333V54.6667C10.25 53.6986 10.578 52.8866 11.234 52.2306C11.89 51.5746 12.7009 51.2477 13.6667 51.25H27.3333C28.3014 51.25 29.1134 51.578 29.7694 52.234C30.4254 52.89 30.7523 53.7009 30.75 54.6667V68.3333C30.75 69.3014 30.422 70.1134 29.766 70.7694C29.11 71.4254 28.2991 71.7523 27.3333 71.75H13.6667ZM56.375 25.625H66.625V15.375H56.375V25.625ZM54.6667 30.75C53.6986 30.75 52.8866 30.422 52.2306 29.766C51.5746 29.11 51.2477 28.2991 51.25 27.3333V13.6667C51.25 12.6986 51.578 11.8866 52.234 11.2306C52.89 10.5746 53.7009 10.2477 54.6667 10.25H68.3333C69.3014 10.25 70.1134 10.578 70.7694 11.234C71.4254 11.89 71.7523 12.7009 71.75 13.6667V27.3333C71.75 28.3014 71.422 29.1134 70.766 29.7694C70.11 30.4254 69.2991 30.7523 68.3333 30.75H54.6667ZM58.0833 71.75V61.5H51.25V54.6667H64.9167V64.9167H71.75V71.75H58.0833ZM44.4167 47.8333V41H58.0833V47.8333H44.4167ZM30.75 47.8333V41H23.9167V34.1667H44.4167V41H37.5833V47.8333H30.75ZM34.1667 30.75V17.0833H41V23.9167H47.8333V30.75H34.1667ZM17.9375 23.0625V17.9375H23.0625V23.0625H17.9375ZM17.9375 64.0625V58.9375H23.0625V64.0625H17.9375ZM58.9375 23.0625V17.9375H64.0625V23.0625H58.9375Z" fill="white"/>
</svg>
