<svg width="25" height="25" viewBox="0 0 25 25" fill="none" xmlns="http://www.w3.org/2000/svg">
<path fill-rule="evenodd" clip-rule="evenodd" d="M4.5 12.75C4.5 8.19365 8.19365 4.5 12.75 4.5C17.3063 4.5 21 8.19365 21 12.75C21 17.3063 17.3063 21 12.75 21C8.19365 21 4.5 17.3063 4.5 12.75Z" fill="#10B981"/>
<path fill-rule="evenodd" clip-rule="evenodd" d="M12.75 11C11.7835 11 11 11.7835 11 12.75C11 13.7165 11.7835 14.5 12.75 14.5C13.7165 14.5 14.5 13.7165 14.5 12.75C14.5 11.7835 13.7165 11 12.75 11ZM9.5 12.75C9.5 10.9551 10.9551 9.5 12.75 9.5C14.5449 9.5 16 10.9551 16 12.75C16 14.5449 14.5449 16 12.75 16C10.9551 16 9.5 14.5449 9.5 12.75Z" fill="white"/>
<path fill-rule="evenodd" clip-rule="evenodd" d="M12.75 2C13.1642 2 13.5 2.33579 13.5 2.75V6.75C13.5 7.16421 13.1642 7.5 12.75 7.5C12.3358 7.5 12 7.16421 12 6.75V2.75C12 2.33579 12.3358 2 12.75 2Z" fill="#10B981"/>
<path fill-rule="evenodd" clip-rule="evenodd" d="M2 12.75C2 12.3358 2.33579 12 2.75 12H6.75C7.16421 12 7.5 12.3358 7.5 12.75C7.5 13.1642 7.16421 13.5 6.75 13.5H2.75C2.33579 13.5 2 13.1642 2 12.75Z" fill="#10B981"/>
<path fill-rule="evenodd" clip-rule="evenodd" d="M12.75 18C13.1642 18 13.5 18.3358 13.5 18.75V22.75C13.5 23.1642 13.1642 23.5 12.75 23.5C12.3358 23.5 12 23.1642 12 22.75V18.75C12 18.3358 12.3358 18 12.75 18Z" fill="#10B981"/>
<path fill-rule="evenodd" clip-rule="evenodd" d="M18 12.75C18 12.3358 18.3358 12 18.75 12H22.75C23.1642 12 23.5 12.3358 23.5 12.75C23.5 13.1642 23.1642 13.5 22.75 13.5H18.75C18.3358 13.5 18 13.1642 18 12.75Z" fill="#10B981"/>
<path d="M2.75 14.25H3.87444C4.50672 18.0188 7.48124 20.9933 11.25 21.6256V22.75C11.25 23.5784 11.9216 24.25 12.75 24.25C13.5784 24.25 14.25 23.5784 14.25 22.75V21.6256C18.0188 20.9933 20.9933 18.0188 21.6256 14.25H22.75C23.5784 14.25 24.25 13.5784 24.25 12.75C24.25 11.9216 23.5784 11.25 22.75 11.25H21.6256C20.9933 7.48124 18.0188 4.50672 14.25 3.87444V2.75C14.25 1.92157 13.5784 1.25 12.75 1.25C11.9216 1.25 11.25 1.92157 11.25 2.75V3.87444C7.48124 4.50672 4.50672 7.48124 3.87444 11.25H2.75C1.92157 11.25 1.25 11.9216 1.25 12.75C1.25 13.5784 1.92157 14.25 2.75 14.25Z" stroke="white" stroke-width="1.5" stroke-linecap="round" stroke-linejoin="round"/>
</svg>
