<svg width="20" height="20" viewBox="0 0 20 20" fill="none" xmlns="http://www.w3.org/2000/svg">
<path fill-rule="evenodd" clip-rule="evenodd" d="M1.66663 10.0049C1.66663 5.40529 5.40697 1.66675 9.99996 1.66675C14.5929 1.66675 18.3333 5.40529 18.3333 10.0049C18.3333 14.5949 14.5929 18.3334 9.99996 18.3334C5.40697 18.3334 1.66663 14.5949 1.66663 10.0049ZM13.0566 10.8483C13.1451 10.7599 13.2577 10.6232 13.2818 10.591C13.4105 10.4222 13.4749 10.2132 13.4749 10.0049C13.4749 9.77096 13.4025 9.55389 13.2658 9.37701C13.2546 9.36581 13.2326 9.34193 13.204 9.3108C13.1505 9.25256 13.0737 9.16897 13.0003 9.09561C12.3407 8.38811 10.6194 7.23036 9.71846 6.87661C9.58172 6.82113 9.23584 6.69973 9.05083 6.69169C8.87387 6.69169 8.70495 6.73189 8.54407 6.81229C8.34298 6.92485 8.18211 7.10172 8.09362 7.31076C8.03732 7.45548 7.94884 7.88963 7.94884 7.89767C7.86036 8.37203 7.81209 9.14385 7.81209 9.99608C7.81209 10.8089 7.86036 11.5478 7.93275 12.0302C7.93474 12.0322 7.94166 12.0667 7.95241 12.1203C7.98509 12.2832 8.05317 12.6227 8.1258 12.7618C8.30276 13.0995 8.64864 13.3085 9.01866 13.3085H9.05083C9.29214 13.3005 9.7989 13.0914 9.7989 13.0834C10.6515 12.7296 12.3327 11.6282 13.0084 10.8965L13.0566 10.8483Z" fill="#005F9D"/>
<path fill-rule="evenodd" clip-rule="evenodd" d="M1.66663 10.0049C1.66663 5.40529 5.40697 1.66675 9.99996 1.66675C14.5929 1.66675 18.3333 5.40529 18.3333 10.0049C18.3333 14.5949 14.5929 18.3334 9.99996 18.3334C5.40697 18.3334 1.66663 14.5949 1.66663 10.0049ZM13.0566 10.8483C13.1451 10.7599 13.2577 10.6232 13.2818 10.591C13.4105 10.4222 13.4749 10.2132 13.4749 10.0049C13.4749 9.77096 13.4025 9.55389 13.2658 9.37701C13.2546 9.36581 13.2326 9.34193 13.204 9.3108C13.1505 9.25256 13.0737 9.16897 13.0003 9.09561C12.3407 8.38811 10.6194 7.23036 9.71846 6.87661C9.58172 6.82113 9.23584 6.69973 9.05083 6.69169C8.87387 6.69169 8.70495 6.73189 8.54407 6.81229C8.34298 6.92485 8.18211 7.10172 8.09362 7.31076C8.03732 7.45548 7.94884 7.88963 7.94884 7.89767C7.86036 8.37203 7.81209 9.14385 7.81209 9.99608C7.81209 10.8089 7.86036 11.5478 7.93275 12.0302C7.93474 12.0322 7.94166 12.0667 7.95241 12.1203C7.98509 12.2832 8.05317 12.6227 8.1258 12.7618C8.30276 13.0995 8.64864 13.3085 9.01866 13.3085H9.05083C9.29214 13.3005 9.7989 13.0914 9.7989 13.0834C10.6515 12.7296 12.3327 11.6282 13.0084 10.8965L13.0566 10.8483Z" fill="url(#paint0_linear_190_2761)"/>
<defs>
<linearGradient id="paint0_linear_190_2761" x1="18.3333" y1="1.66675" x2="-1.51264" y2="12.5198" gradientUnits="userSpaceOnUse">
<stop stop-color="#4169E1"/>
<stop offset="1" stop-color="#00296B"/>
</linearGradient>
</defs>
</svg>
