<svg width="42" height="42" viewBox="0 0 42 42" fill="none" xmlns="http://www.w3.org/2000/svg">
<path d="M22.75 36.75V33.25H26.25V36.75H22.75ZM19.25 33.25V24.5H22.75V33.25H19.25ZM33.25 28V21H36.75V28H33.25ZM29.75 21V17.5H33.25V21H29.75ZM8.75001 24.5V21H12.25V24.5H8.75001ZM5.25001 21V17.5H8.75001V21H5.25001ZM21 8.75001V5.25001H24.5V8.75001H21ZM7.87501 13.125H13.125V7.87501H7.87501V13.125ZM7.00001 15.75C6.50417 15.75 6.08826 15.582 5.75226 15.246C5.41626 14.91 5.24884 14.4947 5.25001 14V7.00001C5.25001 6.50417 5.41801 6.08826 5.75401 5.75226C6.09001 5.41626 6.50534 5.24884 7.00001 5.25001H14C14.4958 5.25001 14.9118 5.41801 15.2478 5.75401C15.5838 6.09001 15.7512 6.50534 15.75 7.00001V14C15.75 14.4958 15.582 14.9118 15.246 15.2478C14.91 15.5838 14.4947 15.7512 14 15.75H7.00001ZM7.87501 34.125H13.125V28.875H7.87501V34.125ZM7.00001 36.75C6.50417 36.75 6.08826 36.582 5.75226 36.246C5.41626 35.91 5.24884 35.4947 5.25001 35V28C5.25001 27.5042 5.41801 27.0883 5.75401 26.7523C6.09001 26.4163 6.50534 26.2488 7.00001 26.25H14C14.4958 26.25 14.9118 26.418 15.2478 26.754C15.5838 27.09 15.7512 27.5053 15.75 28V35C15.75 35.4958 15.582 35.9118 15.246 36.2478C14.91 36.5838 14.4947 36.7512 14 36.75H7.00001ZM28.875 13.125H34.125V7.87501H28.875V13.125ZM28 15.75C27.5042 15.75 27.0883 15.582 26.7523 15.246C26.4163 14.91 26.2488 14.4947 26.25 14V7.00001C26.25 6.50417 26.418 6.08826 26.754 5.75226C27.09 5.41626 27.5053 5.24884 28 5.25001H35C35.4958 5.25001 35.9118 5.41801 36.2478 5.75401C36.5838 6.09001 36.7512 6.50534 36.75 7.00001V14C36.75 14.4958 36.582 14.9118 36.246 15.2478C35.91 15.5838 35.4947 15.7512 35 15.75H28ZM29.75 36.75V31.5H26.25V28H33.25V33.25H36.75V36.75H29.75ZM22.75 24.5V21H29.75V24.5H22.75ZM15.75 24.5V21H12.25V17.5H22.75V21H19.25V24.5H15.75ZM17.5 15.75V8.75001H21V12.25H24.5V15.75H17.5ZM9.18751 11.8125V9.18751H11.8125V11.8125H9.18751ZM9.18751 32.8125V30.1875H11.8125V32.8125H9.18751ZM30.1875 11.8125V9.18751H32.8125V11.8125H30.1875Z" fill="white"/>
<path d="M22.75 36.75V33.25H26.25V36.75H22.75ZM19.25 33.25V24.5H22.75V33.25H19.25ZM33.25 28V21H36.75V28H33.25ZM29.75 21V17.5H33.25V21H29.75ZM8.75001 24.5V21H12.25V24.5H8.75001ZM5.25001 21V17.5H8.75001V21H5.25001ZM21 8.75001V5.25001H24.5V8.75001H21ZM7.87501 13.125H13.125V7.87501H7.87501V13.125ZM7.00001 15.75C6.50417 15.75 6.08826 15.582 5.75226 15.246C5.41626 14.91 5.24884 14.4947 5.25001 14V7.00001C5.25001 6.50417 5.41801 6.08826 5.75401 5.75226C6.09001 5.41626 6.50534 5.24884 7.00001 5.25001H14C14.4958 5.25001 14.9118 5.41801 15.2478 5.75401C15.5838 6.09001 15.7512 6.50534 15.75 7.00001V14C15.75 14.4958 15.582 14.9118 15.246 15.2478C14.91 15.5838 14.4947 15.7512 14 15.75H7.00001ZM7.87501 34.125H13.125V28.875H7.87501V34.125ZM7.00001 36.75C6.50417 36.75 6.08826 36.582 5.75226 36.246C5.41626 35.91 5.24884 35.4947 5.25001 35V28C5.25001 27.5042 5.41801 27.0883 5.75401 26.7523C6.09001 26.4163 6.50534 26.2488 7.00001 26.25H14C14.4958 26.25 14.9118 26.418 15.2478 26.754C15.5838 27.09 15.7512 27.5053 15.75 28V35C15.75 35.4958 15.582 35.9118 15.246 36.2478C14.91 36.5838 14.4947 36.7512 14 36.75H7.00001ZM28.875 13.125H34.125V7.87501H28.875V13.125ZM28 15.75C27.5042 15.75 27.0883 15.582 26.7523 15.246C26.4163 14.91 26.2488 14.4947 26.25 14V7.00001C26.25 6.50417 26.418 6.08826 26.754 5.75226C27.09 5.41626 27.5053 5.24884 28 5.25001H35C35.4958 5.25001 35.9118 5.41801 36.2478 5.75401C36.5838 6.09001 36.7512 6.50534 36.75 7.00001V14C36.75 14.4958 36.582 14.9118 36.246 15.2478C35.91 15.5838 35.4947 15.7512 35 15.75H28ZM29.75 36.75V31.5H26.25V28H33.25V33.25H36.75V36.75H29.75ZM22.75 24.5V21H29.75V24.5H22.75ZM15.75 24.5V21H12.25V17.5H22.75V21H19.25V24.5H15.75ZM17.5 15.75V8.75001H21V12.25H24.5V15.75H17.5ZM9.18751 11.8125V9.18751H11.8125V11.8125H9.18751ZM9.18751 32.8125V30.1875H11.8125V32.8125H9.18751ZM30.1875 11.8125V9.18751H32.8125V11.8125H30.1875Z" fill="url(#paint0_linear_547_3212)"/>
<defs>
<linearGradient id="paint0_linear_547_3212" x1="36.75" y1="5.25" x2="-0.758807" y2="25.7623" gradientUnits="userSpaceOnUse">
<stop stop-color="#4169E1"/>
<stop offset="1" stop-color="#00296B"/>
</linearGradient>
</defs>
</svg>
