<svg width="82" height="82" viewBox="0 0 82 82" fill="none" xmlns="http://www.w3.org/2000/svg">
	<path d="M41.0002 75.1666C36.2738 75.1666 31.8321 74.2691 27.6752 72.4743C23.5182 70.6794 19.9022 68.2456 16.8272 65.1728C13.7522 62.0978 11.3184 58.4819 9.52583 54.3249C7.73322 50.168 6.83577 45.7263 6.8335 40.9999C6.8335 36.2735 7.73094 31.8319 9.52583 27.6749C11.3207 23.518 13.7545 19.902 16.8272 16.827C19.9022 13.752 23.5182 11.3182 27.6752 9.52559C31.8321 7.73297 36.2738 6.83553 41.0002 6.83325C45.7266 6.83325 50.1682 7.7307 54.3252 9.52559C58.4821 11.3205 62.0981 13.7543 65.1731 16.827C68.2481 19.902 70.683 23.518 72.4779 27.6749C74.2728 31.8319 75.1691 36.2735 75.1668 40.9999C75.1668 45.7263 74.2694 50.168 72.4745 54.3249C70.6796 58.4819 68.2458 62.0978 65.1731 65.1728C62.0981 68.2478 58.4821 70.6828 54.3252 72.4777C50.1682 74.2726 45.7266 75.1689 41.0002 75.1666ZM41.0002 68.3332C44.6446 68.3332 48.1467 67.6499 51.5064 66.2832C54.8661 64.9166 57.8272 62.952 60.3897 60.3895L41.0002 40.9999V13.6666C33.3696 13.6666 26.9064 16.3145 21.6106 21.6103C16.3147 26.9062 13.6668 33.3694 13.6668 40.9999C13.6668 48.6305 16.3147 55.0937 21.6106 60.3895C26.9064 65.6853 33.3696 68.3332 41.0002 68.3332Z" fill="white"/>
</svg>
