<svg width="53" height="32" viewBox="0 0 53 32" fill="none" xmlns="http://www.w3.org/2000/svg">
<path d="M34.4775 5.83141C40.0902 7.14348 40.236 8.52844 40.236 8.52844C43.8807 8.52844 44.8283 8.52844 45.4843 9.18447C47.5982 11.1526 44.0264 15.9635 44.0264 15.9635C43.5891 16.2551 3.35229 31.9999 3.35229 31.9999H45.703L52.482 0H6.99693C6.99693 0 33.8215 5.68563 34.4775 5.83141Z" fill="#005F9D"/>
<path d="M38.6325 10.4966C38.0493 10.7882 36.2999 11.0798 35.7168 11.1527C35.1336 11.2256 34.842 11.2256 34.842 11.3714C34.842 11.59 35.6439 11.5171 35.9354 11.5171C37.2475 11.5171 42.4229 11.1527 43.6621 11.3714C44.6097 11.5171 43.5163 13.4123 43.2247 14.5786C43.1518 15.016 43.4434 14.7973 43.5892 14.5786C43.9536 13.9955 44.9741 12.1003 45.047 11.3714C45.1928 9.9135 44.1723 9.69482 42.4229 9.69482H39.7259C39.5072 9.69482 39.4343 9.76772 39.3614 9.9135C39.1427 10.1322 38.7782 10.3509 38.6325 10.4966Z" fill="#005F9D"/>
<path d="M21.8672 21.2849L0.218018 32.0001L5.4663 7.4353H27.3341C27.6986 7.4353 39.0699 7.4353 39.2885 9.69497H19.6075L22.669 19.0252C26.1678 17.3487 34.7692 13.8499 39.9446 13.6312C42.1313 13.5583 43.0061 13.9227 42.5687 14.2143C42.2771 14.3601 40.1632 14.6517 38.4867 15.089C35.571 15.818 35.4252 15.818 32.3637 16.8385C28.9378 18.0047 26.0949 19.3168 21.8672 21.2849Z" fill="#005F9D"/>
</svg>
