<svg width="56" height="56" viewBox="0 0 56 56" fill="none" xmlns="http://www.w3.org/2000/svg">
<circle cx="28" cy="28" r="28" fill="white"/>
<circle cx="28" cy="28" r="28" fill="url(#paint0_linear_326_1596)"/>
<path fill-rule="evenodd" clip-rule="evenodd" d="M35.2534 20.3152C35.3067 20.4084 35.4001 20.475 35.5201 20.475C38.7201 20.475 41.3334 23.0855 41.3334 26.2819V34.1931C41.3334 37.3896 38.7201 40 35.5201 40H20.4801C17.2667 40 14.6667 37.3896 14.6667 34.1931V26.2819C14.6667 23.0855 17.2667 20.475 20.4801 20.475C20.5867 20.475 20.6934 20.4218 20.7334 20.3152L20.8134 20.1554C20.8594 20.0586 20.9066 19.9593 20.9545 19.8584C21.2955 19.1399 21.6729 18.3451 21.9067 17.8779C22.5201 16.6792 23.5601 16.0133 24.8534 16H31.1334C32.4267 16.0133 33.4801 16.6792 34.0934 17.8779C34.3034 18.2974 34.6234 18.9732 34.9317 19.6246C34.9954 19.759 35.0585 19.8923 35.1201 20.0222L35.2534 20.3152ZM34.2799 25.4295C34.2799 26.0954 34.8133 26.6282 35.4799 26.6282C36.1466 26.6282 36.6933 26.0954 36.6933 25.4295C36.6933 24.7636 36.1466 24.2175 35.4799 24.2175C34.8133 24.2175 34.2799 24.7636 34.2799 25.4295ZM25.6935 27.4939C26.3202 26.8679 27.1335 26.535 28.0002 26.535C28.8668 26.535 29.6802 26.8679 30.2935 27.4806C30.9068 28.0932 31.2402 28.9057 31.2402 29.7714C31.2268 31.556 29.7868 33.0078 28.0002 33.0078C27.1335 33.0078 26.3202 32.6748 25.7068 32.0621C25.0935 31.4495 24.7602 30.6371 24.7602 29.7714V29.758C24.7468 28.919 25.0802 28.1065 25.6935 27.4939ZM31.6933 33.4739C30.7467 34.4195 29.44 35.0056 28 35.0056C26.6 35.0056 25.2933 34.4595 24.2933 33.4739C23.3067 32.475 22.76 31.1698 22.76 29.7714C22.7467 28.3862 23.2933 27.081 24.28 26.0821C25.28 25.0833 26.6 24.5372 28 24.5372C29.4 24.5372 30.72 25.0833 31.7067 26.0688C32.6933 27.0677 33.24 28.3862 33.24 29.7714C33.2267 31.2231 32.64 32.5283 31.6933 33.4739Z" fill="white"/>
<defs>
<linearGradient id="paint0_linear_326_1596" x1="56" y1="0" x2="-10.6823" y2="36.4663" gradientUnits="userSpaceOnUse">
<stop stop-color="#4169E1"/>
<stop offset="1" stop-color="#00296B"/>
</linearGradient>
</defs>
</svg>
