<svg width="24" height="24" viewBox="0 0 24 24" fill="none" xmlns="http://www.w3.org/2000/svg">
<g clip-path="url(#clip0_265_1668)">
<path d="M12 23.25C18.2132 23.25 23.25 18.2132 23.25 12C23.25 5.7868 18.2132 0.75 12 0.75C5.7868 0.75 0.75 5.7868 0.75 12C0.75 18.2132 5.7868 23.25 12 23.25Z" fill="#98C0D0"/>
<path d="M12.0001 21.0263C16.9852 21.0263 21.0264 16.9851 21.0264 12.0001C21.0264 7.01501 16.9852 2.97382 12.0001 2.97382C7.01507 2.97382 2.97388 7.01501 2.97388 12.0001C2.97388 16.9851 7.01507 21.0263 12.0001 21.0263Z" fill="#FCEBCD"/>
<path d="M9.43114 2.82369C8.22739 3.17244 6.54177 3.70681 4.73802 5.86119C2.95677 7.99306 2.58927 10.4699 2.47489 12.1781C2.47489 12.1781 1.44552 13.4662 1.39677 13.2262C1.00864 11.3606 1.79239 7.19056 3.84177 4.98556C6.22677 2.42056 9.32802 1.51119 10.4493 1.34056C10.6424 1.31056 9.79677 2.71869 9.43114 2.82369Z" fill="#C2E3F0"/>
<path d="M12 20.5481C16.721 20.5481 20.5482 16.721 20.5482 12C20.5482 7.27897 16.721 3.45184 12 3.45184C7.27903 3.45184 3.4519 7.27897 3.4519 12C3.4519 16.721 7.27903 20.5481 12 20.5481Z" fill="white"/>
<path d="M12 6.5625V12" stroke="#563428" stroke-width="0.75" stroke-miterlimit="10" stroke-linecap="round"/>
<path d="M11.9998 12.9488C12.5238 12.9488 12.9485 12.524 12.9485 12C12.9485 11.476 12.5238 11.0513 11.9998 11.0513C11.4758 11.0513 11.051 11.476 11.051 12C11.051 12.524 11.4758 12.9488 11.9998 12.9488Z" fill="#563428"/>
<path d="M8.56665 14.0137L11.9998 12" stroke="#563428" stroke-width="1.125" stroke-miterlimit="10" stroke-linecap="round"/>
<path d="M12 18.75V19.6875M12 4.3125V5.25M12 18.75V19.6875M12 4.3125V5.25M5.25 12H4.3125M19.6875 12H18.75M5.25 12H4.3125M19.6875 12H18.75" stroke="#6596A3" stroke-width="0.9375" stroke-miterlimit="10"/>
<path d="M8.62517 17.8462L8.15642 18.6581M15.8439 5.34186L15.3752 6.15373M8.62517 17.8462L8.15642 18.6581M15.8439 5.34186L15.3752 6.15373M15.3752 17.8462L15.8439 18.6581M8.15642 5.34186L8.62517 6.15373M15.3752 17.8462L15.8439 18.6581M8.15642 5.34186L8.62517 6.15373M17.8464 15.375L18.6583 15.8437M5.34204 8.15623L6.15392 8.62498M17.8464 15.375L18.6583 15.8437M5.34204 8.15623L6.15392 8.62498M6.15392 15.375L5.34204 15.8437M18.6583 8.15623L17.8464 8.62498M6.15392 15.375L5.34204 15.8437M18.6583 8.15623L17.8464 8.62498" stroke="#B0BEC5" stroke-width="0.5625" stroke-miterlimit="10"/>
</g>
<defs>
<clipPath id="clip0_265_1668">
<rect width="24" height="24" fill="white"/>
</clipPath>
</defs>
</svg>
