<svg width="16" height="16" viewBox="0 0 16 16" fill="none" xmlns="http://www.w3.org/2000/svg">
<circle cx="8" cy="8" r="8" fill="white"/>
<g clip-path="url(#clip0_326_1572)">
<path fill-rule="evenodd" clip-rule="evenodd" d="M6.93597 4.2628C7.08815 4.03454 7.34434 3.89743 7.61868 3.89743H8.38146C8.6558 3.89743 8.91199 4.03454 9.06416 4.2628L9.43597 4.82051H10.9744C11.1444 4.82051 11.2821 4.95827 11.2821 5.1282C11.2821 5.29813 11.1444 5.43589 10.9744 5.43589H5.02571C4.85578 5.43589 4.71802 5.29813 4.71802 5.1282C4.71802 4.95827 4.85578 4.82051 5.02571 4.82051H6.56417L6.93597 4.2628ZM9.23085 12.1026H6.76931C5.863 12.1026 5.12829 11.3679 5.12829 10.4615V5.94872H10.8719V10.4615C10.8719 11.3679 10.1372 12.1026 9.23085 12.1026ZM7.17957 7.28205C7.3495 7.28205 7.48726 7.41981 7.48726 7.58974V10.4615C7.48726 10.6315 7.3495 10.7692 7.17957 10.7692C7.00964 10.7692 6.87188 10.6315 6.87188 10.4615L6.87188 7.58974C6.87188 7.41981 7.00964 7.28205 7.17957 7.28205ZM8.82059 7.28205C8.99053 7.28205 9.12829 7.41981 9.12829 7.58974V10.4615C9.12829 10.6315 8.99053 10.7692 8.82059 10.7692C8.65066 10.7692 8.5129 10.6315 8.5129 10.4615V7.58974C8.5129 7.41981 8.65066 7.28205 8.82059 7.28205Z" fill="#E71921"/>
</g>
<defs>
<clipPath id="clip0_326_1572">
<rect width="9.84615" height="9.84615" fill="white" transform="translate(3.0769 3.07692)"/>
</clipPath>
</defs>
</svg>
