<svg width="24" height="24" viewBox="0 0 24 24" fill="none" xmlns="http://www.w3.org/2000/svg">
<path fill-rule="evenodd" clip-rule="evenodd" d="M22 12C22 17.52 17.51 22 12 22L11.7202 21.9962C6.32942 21.8478 2 17.4264 2 12C2 6.49 6.48 2 12 2C17.51 2 22 6.49 22 12ZM11.4299 14.9901L16.1799 10.2401C16.5199 9.90012 16.5199 9.35012 16.1799 9.00012C15.8399 8.66012 15.2799 8.66012 14.9399 9.00012L10.8099 13.1301L9.05994 11.3801C8.71994 11.0401 8.15994 11.0401 7.81994 11.3801C7.47994 11.7201 7.47994 12.2701 7.81994 12.6201L10.1999 14.9901C10.3699 15.1601 10.5899 15.2401 10.8099 15.2401C11.0399 15.2401 11.2599 15.1601 11.4299 14.9901Z" fill="#EAEAEA"/>
</svg>
