<svg width="82" height="82" viewBox="0 0 82 82" fill="none" xmlns="http://www.w3.org/2000/svg">
<path d="M25.625 41C25.625 40.3204 25.895 39.6686 26.3755 39.188C26.8561 38.7075 27.5079 38.4375 28.1875 38.4375H51.25V21.7812C51.25 16.6562 45.8383 12.8125 41 12.8125H16.6562C14.2784 12.815 11.9986 13.7608 10.3172 15.4422C8.63578 17.1236 7.69004 19.4034 7.6875 21.7812V60.2188C7.69004 62.5966 8.63578 64.8764 10.3172 66.5578C11.9986 68.2392 14.2784 69.185 16.6562 69.1875H42.2812C44.6591 69.185 46.9389 68.2392 48.6203 66.5578C50.3017 64.8764 51.2475 62.5966 51.25 60.2188V43.5625H28.1875C27.5079 43.5625 26.8561 43.2925 26.3755 42.812C25.895 42.3314 25.625 41.6796 25.625 41ZM73.5614 39.1886L60.7489 26.3761C60.2644 25.9159 59.6193 25.663 58.9511 25.6716C58.2829 25.6802 57.6445 25.9494 57.1719 26.4219C56.6994 26.8945 56.4302 27.5329 56.4216 28.2011C56.413 28.8693 56.6659 29.5144 57.1261 29.9989L65.5632 38.4375H51.25V43.5625H65.5632L57.1261 52.0011C56.8782 52.2367 56.6799 52.5196 56.5429 52.833C56.406 53.1464 56.3332 53.4841 56.3288 53.8261C56.3244 54.1681 56.3886 54.5075 56.5174 54.8243C56.6463 55.1412 56.8373 55.429 57.0791 55.6709C57.321 55.9127 57.6088 56.1037 57.9257 56.2326C58.2425 56.3614 58.5819 56.4256 58.9239 56.4212C59.2659 56.4168 59.6036 56.344 59.917 56.2071C60.2304 56.0701 60.5133 55.8718 60.7489 55.6239L73.5614 42.8114C74.0416 42.3309 74.3113 41.6793 74.3113 41C74.3113 40.3207 74.0416 39.6691 73.5614 39.1886Z" fill="white"/>
</svg>
