<svg width="172" height="171" viewBox="0 0 172 171" fill="none" xmlns="http://www.w3.org/2000/svg">
<path d="M93.125 149.625V135.375H107.375V149.625H93.125ZM78.875 135.375V99.75H93.125V135.375H78.875ZM135.875 114V85.5H150.125V114H135.875ZM121.625 85.5V71.25H135.875V85.5H121.625ZM36.125 99.75V85.5H50.375V99.75H36.125ZM21.875 85.5V71.25H36.125V85.5H21.875ZM86 35.625V21.375H100.25V35.625H86ZM32.5625 53.4375H53.9375V32.0625H32.5625V53.4375ZM29 64.125C26.9813 64.125 25.2879 63.441 23.9199 62.073C22.5519 60.705 21.8703 59.014 21.875 57V28.5C21.875 26.4813 22.559 24.7879 23.927 23.4199C25.295 22.0519 26.986 21.3703 29 21.375H57.5C59.5188 21.375 61.2121 22.059 62.5801 23.427C63.9481 24.795 64.6298 26.486 64.625 28.5V57C64.625 59.0188 63.941 60.7121 62.573 62.0801C61.205 63.4481 59.514 64.1298 57.5 64.125H29ZM32.5625 138.938H53.9375V117.563H32.5625V138.938ZM29 149.625C26.9813 149.625 25.2879 148.941 23.9199 147.573C22.5519 146.205 21.8703 144.514 21.875 142.5V114C21.875 111.981 22.559 110.288 23.927 108.92C25.295 107.552 26.986 106.87 29 106.875H57.5C59.5188 106.875 61.2121 107.559 62.5801 108.927C63.9481 110.295 64.6298 111.986 64.625 114V142.5C64.625 144.519 63.941 146.212 62.573 147.58C61.205 148.948 59.514 149.63 57.5 149.625H29ZM118.063 53.4375H139.438V32.0625H118.063V53.4375ZM114.5 64.125C112.481 64.125 110.788 63.441 109.42 62.073C108.052 60.705 107.37 59.014 107.375 57V28.5C107.375 26.4813 108.059 24.7879 109.427 23.4199C110.795 22.0519 112.486 21.3703 114.5 21.375H143C145.019 21.375 146.712 22.059 148.08 23.427C149.448 24.795 150.13 26.486 150.125 28.5V57C150.125 59.0188 149.441 60.7121 148.073 62.0801C146.705 63.4481 145.014 64.1298 143 64.125H114.5ZM121.625 149.625V128.25H107.375V114H135.875V135.375H150.125V149.625H121.625ZM93.125 99.75V85.5H121.625V99.75H93.125ZM64.625 99.75V85.5H50.375V71.25H93.125V85.5H78.875V99.75H64.625ZM71.75 64.125V35.625H86V49.875H100.25V64.125H71.75ZM37.9063 48.0938V37.4063H48.5938V48.0938H37.9063ZM37.9063 133.594V122.906H48.5938V133.594H37.9063ZM123.406 48.0938V37.4063H134.094V48.0938H123.406Z" fill="white"/>
<path d="M93.125 149.625V135.375H107.375V149.625H93.125ZM78.875 135.375V99.75H93.125V135.375H78.875ZM135.875 114V85.5H150.125V114H135.875ZM121.625 85.5V71.25H135.875V85.5H121.625ZM36.125 99.75V85.5H50.375V99.75H36.125ZM21.875 85.5V71.25H36.125V85.5H21.875ZM86 35.625V21.375H100.25V35.625H86ZM32.5625 53.4375H53.9375V32.0625H32.5625V53.4375ZM29 64.125C26.9813 64.125 25.2879 63.441 23.9199 62.073C22.5519 60.705 21.8703 59.014 21.875 57V28.5C21.875 26.4813 22.559 24.7879 23.927 23.4199C25.295 22.0519 26.986 21.3703 29 21.375H57.5C59.5188 21.375 61.2121 22.059 62.5801 23.427C63.9481 24.795 64.6298 26.486 64.625 28.5V57C64.625 59.0188 63.941 60.7121 62.573 62.0801C61.205 63.4481 59.514 64.1298 57.5 64.125H29ZM32.5625 138.938H53.9375V117.563H32.5625V138.938ZM29 149.625C26.9813 149.625 25.2879 148.941 23.9199 147.573C22.5519 146.205 21.8703 144.514 21.875 142.5V114C21.875 111.981 22.559 110.288 23.927 108.92C25.295 107.552 26.986 106.87 29 106.875H57.5C59.5188 106.875 61.2121 107.559 62.5801 108.927C63.9481 110.295 64.6298 111.986 64.625 114V142.5C64.625 144.519 63.941 146.212 62.573 147.58C61.205 148.948 59.514 149.63 57.5 149.625H29ZM118.063 53.4375H139.438V32.0625H118.063V53.4375ZM114.5 64.125C112.481 64.125 110.788 63.441 109.42 62.073C108.052 60.705 107.37 59.014 107.375 57V28.5C107.375 26.4813 108.059 24.7879 109.427 23.4199C110.795 22.0519 112.486 21.3703 114.5 21.375H143C145.019 21.375 146.712 22.059 148.08 23.427C149.448 24.795 150.13 26.486 150.125 28.5V57C150.125 59.0188 149.441 60.7121 148.073 62.0801C146.705 63.4481 145.014 64.1298 143 64.125H114.5ZM121.625 149.625V128.25H107.375V114H135.875V135.375H150.125V149.625H121.625ZM93.125 99.75V85.5H121.625V99.75H93.125ZM64.625 99.75V85.5H50.375V71.25H93.125V85.5H78.875V99.75H64.625ZM71.75 64.125V35.625H86V49.875H100.25V64.125H71.75ZM37.9063 48.0938V37.4063H48.5938V48.0938H37.9063ZM37.9063 133.594V122.906H48.5938V133.594H37.9063ZM123.406 48.0938V37.4063H134.094V48.0938H123.406Z" fill="url(#paint0_linear_531_3926)"/>
<defs>
<linearGradient id="paint0_linear_531_3926" x1="150.125" y1="21.375" x2="-2.58943" y2="104.889" gradientUnits="userSpaceOnUse">
<stop stop-color="#4169E1"/>
<stop offset="1" stop-color="#00296B"/>
</linearGradient>
</defs>
</svg>
