<svg width="25" height="25" viewBox="0 0 25 25" fill="none" xmlns="http://www.w3.org/2000/svg">
<mask id="path-1-outside-1_216_1899" maskUnits="userSpaceOnUse" x="0" y="0" width="25" height="25" fill="black">
<rect fill="white" width="25" height="25"/>
<path d="M2 8C2 4.68629 4.68629 2 8 2H17.5C20.8137 2 23.5 4.68629 23.5 8V17.5C23.5 20.8137 20.8137 23.5 17.5 23.5H8C4.68629 23.5 2 20.8137 2 17.5V8Z"/>
<path fill-rule="evenodd" clip-rule="evenodd" d="M17.2621 13.2367C14.5221 11.1211 10.9857 11.1211 8.24574 13.2367C7.91788 13.4898 7.44688 13.4292 7.19374 13.1014C6.9406 12.7735 7.00118 12.3025 7.32904 12.0494C10.6091 9.5169 14.8988 9.5169 18.1788 12.0494C18.5067 12.3025 18.5672 12.7735 18.3141 13.1014C18.0609 13.4292 17.59 13.4898 17.2621 13.2367Z"/>
<path fill-rule="evenodd" clip-rule="evenodd" d="M19.2917 10.8006C15.3197 7.73313 10.1804 7.73313 6.20845 10.8006C5.88062 11.0538 5.40962 10.9933 5.15644 10.6654C4.90327 10.3376 4.96379 9.8666 5.29162 9.61342C9.80368 6.12886 15.6965 6.12886 20.2085 9.61342C20.5364 9.8666 20.5969 10.3376 20.3437 10.6654C20.0905 10.9933 19.6195 11.0538 19.2917 10.8006Z"/>
<path fill-rule="evenodd" clip-rule="evenodd" d="M15.9308 15.791C13.9962 14.2925 11.497 14.2925 9.56234 15.791C9.23488 16.0447 8.76379 15.9849 8.51014 15.6574C8.25648 15.3299 8.31632 14.8589 8.64378 14.6052C11.1192 12.6878 14.374 12.6878 16.8494 14.6052C17.1768 14.8589 17.2367 15.3299 16.983 15.6574C16.7294 15.9849 16.2583 16.0447 15.9308 15.791Z"/>
<path fill-rule="evenodd" clip-rule="evenodd" d="M11.25 18.25C11.25 17.4216 11.9216 16.75 12.75 16.75H12.7575C13.5859 16.75 14.2575 17.4216 14.2575 18.25C14.2575 19.0784 13.5859 19.75 12.7575 19.75H12.75C11.9216 19.75 11.25 19.0784 11.25 18.25Z"/>
</mask>
<path d="M2 8C2 4.68629 4.68629 2 8 2H17.5C20.8137 2 23.5 4.68629 23.5 8V17.5C23.5 20.8137 20.8137 23.5 17.5 23.5H8C4.68629 23.5 2 20.8137 2 17.5V8Z" fill="#10B981"/>
<path fill-rule="evenodd" clip-rule="evenodd" d="M17.2621 13.2367C14.5221 11.1211 10.9857 11.1211 8.24574 13.2367C7.91788 13.4898 7.44688 13.4292 7.19374 13.1014C6.9406 12.7735 7.00118 12.3025 7.32904 12.0494C10.6091 9.5169 14.8988 9.5169 18.1788 12.0494C18.5067 12.3025 18.5672 12.7735 18.3141 13.1014C18.0609 13.4292 17.59 13.4898 17.2621 13.2367Z" fill="white"/>
<path fill-rule="evenodd" clip-rule="evenodd" d="M19.2917 10.8006C15.3197 7.73313 10.1804 7.73313 6.20845 10.8006C5.88062 11.0538 5.40962 10.9933 5.15644 10.6654C4.90327 10.3376 4.96379 9.8666 5.29162 9.61342C9.80368 6.12886 15.6965 6.12886 20.2085 9.61342C20.5364 9.8666 20.5969 10.3376 20.3437 10.6654C20.0905 10.9933 19.6195 11.0538 19.2917 10.8006Z" fill="white"/>
<path fill-rule="evenodd" clip-rule="evenodd" d="M15.9308 15.791C13.9962 14.2925 11.497 14.2925 9.56234 15.791C9.23488 16.0447 8.76379 15.9849 8.51014 15.6574C8.25648 15.3299 8.31632 14.8589 8.64378 14.6052C11.1192 12.6878 14.374 12.6878 16.8494 14.6052C17.1768 14.8589 17.2367 15.3299 16.983 15.6574C16.7294 15.9849 16.2583 16.0447 15.9308 15.791Z" fill="white"/>
<path fill-rule="evenodd" clip-rule="evenodd" d="M11.25 18.25C11.25 17.4216 11.9216 16.75 12.75 16.75H12.7575C13.5859 16.75 14.2575 17.4216 14.2575 18.25C14.2575 19.0784 13.5859 19.75 12.7575 19.75H12.75C11.9216 19.75 11.25 19.0784 11.25 18.25Z" fill="white"/>
<path d="M8.24574 13.2367L7.32904 12.0494L7.32904 12.0494L8.24574 13.2367ZM17.2621 13.2367L18.1788 12.0494V12.0494L17.2621 13.2367ZM7.19374 13.1014L6.00645 14.0181H6.00645L7.19374 13.1014ZM7.32904 12.0494L6.41234 10.8621L7.32904 12.0494ZM18.1788 12.0494L17.2621 13.2367L18.1788 12.0494ZM18.3141 13.1014L19.5014 14.0181L18.3141 13.1014ZM6.20845 10.8006L7.12529 11.9878L6.20845 10.8006ZM19.2917 10.8006L20.2085 9.61342L19.2917 10.8006ZM5.15644 10.6654L3.96926 11.5823H3.96926L5.15644 10.6654ZM5.29162 9.61342L6.20845 10.8006L5.29162 9.61342ZM20.2085 9.61342L21.1254 8.42623H21.1254L20.2085 9.61342ZM20.3437 10.6654L21.5309 11.5823V11.5823L20.3437 10.6654ZM9.56234 15.791L10.4809 16.9769H10.4809L9.56234 15.791ZM15.9308 15.791L15.0123 16.9769H15.0123L15.9308 15.791ZM8.51014 15.6574L9.69599 14.7388H9.69599L8.51014 15.6574ZM8.64378 14.6052L7.72522 13.4193L8.64378 14.6052ZM16.8494 14.6052L15.9308 15.791H15.9308L16.8494 14.6052ZM16.983 15.6574L15.7972 14.7388L15.7972 14.7388L16.983 15.6574ZM8 3.5H17.5V0.5H8V3.5ZM22 8V17.5H25V8H22ZM17.5 22H8V25H17.5V22ZM3.5 17.5V8H0.5V17.5H3.5ZM8 22C5.51472 22 3.5 19.9853 3.5 17.5H0.5C0.5 21.6421 3.85787 25 8 25V22ZM22 17.5C22 19.9853 19.9853 22 17.5 22V25C21.6421 25 25 21.6421 25 17.5H22ZM17.5 3.5C19.9853 3.5 22 5.51472 22 8H25C25 3.85787 21.6421 0.5 17.5 0.5V3.5ZM8 0.5C3.85787 0.5 0.5 3.85787 0.5 8H3.5C3.5 5.51472 5.51472 3.5 8 3.5V0.5ZM9.16244 14.424C11.3624 12.7254 14.1454 12.7254 16.3454 14.424L18.1788 12.0494C14.8988 9.5169 10.6091 9.5169 7.32904 12.0494L9.16244 14.424ZM6.00645 14.0181C6.76587 15.0017 8.17886 15.1834 9.16244 14.424L7.32904 12.0494C7.6569 11.7962 8.1279 11.8568 8.38104 12.1847L6.00645 14.0181ZM6.41234 10.8621C5.42876 11.6215 5.24703 13.0345 6.00645 14.0181L8.38104 12.1847C8.63417 12.5125 8.5736 12.9835 8.24574 13.2367L6.41234 10.8621ZM19.0955 10.8621C15.2754 7.91267 10.2324 7.91267 6.41234 10.8621L8.24574 13.2367C10.9857 11.1211 14.5221 11.1211 17.2621 13.2367L19.0955 10.8621ZM19.5014 14.0181C20.2608 13.0345 20.0791 11.6215 19.0955 10.8621L17.2621 13.2367C16.9342 12.9835 16.8737 12.5125 17.1268 12.1847L19.5014 14.0181ZM16.3454 14.424C17.329 15.1834 18.742 15.0017 19.5014 14.0181L17.1268 12.1847C17.3799 11.8568 17.8509 11.7962 18.1788 12.0494L16.3454 14.424ZM7.12529 11.9878C10.5572 9.3374 14.9429 9.3374 18.3749 11.9878L20.2085 9.61342C15.6965 6.12886 9.80368 6.12886 5.29162 9.61342L7.12529 11.9878ZM3.96926 11.5823C4.72879 12.5658 6.14179 12.7473 7.12529 11.9878L5.29162 9.61342C5.61945 9.36024 6.09045 9.42076 6.34363 9.74859L3.96926 11.5823ZM4.37478 8.42623C3.39128 9.18577 3.20973 10.5988 3.96926 11.5823L6.34363 9.74859C6.59681 10.0764 6.53629 10.5474 6.20845 10.8006L4.37478 8.42623ZM21.1254 8.42623C16.0732 4.52459 9.42691 4.52459 4.37478 8.42623L6.20845 10.8006C10.1804 7.73313 15.3197 7.73313 19.2917 10.8006L21.1254 8.42623ZM21.5309 11.5823C22.2904 10.5988 22.1089 9.18577 21.1254 8.42623L19.2917 10.8006C18.9639 10.5474 18.9033 10.0764 19.1565 9.74859L21.5309 11.5823ZM18.3749 11.9878C19.3584 12.7473 20.7714 12.5658 21.5309 11.5823L19.1565 9.74859C19.4097 9.42076 19.8807 9.36024 20.2085 9.61342L18.3749 11.9878ZM10.4809 16.9769C11.8748 15.8972 13.6184 15.8972 15.0123 16.9769L16.8494 14.6052C14.374 12.6878 11.1192 12.6878 8.64378 14.6052L10.4809 16.9769ZM7.32429 16.576C8.08525 17.5584 9.49852 17.7379 10.4809 16.9769L8.64378 14.6052C8.97125 14.3515 9.44234 14.4114 9.69599 14.7388L7.32429 16.576ZM7.72522 13.4193C6.74283 14.1803 6.56332 15.5936 7.32429 16.576L9.69599 14.7388C9.94964 15.0663 9.88981 15.5374 9.56234 15.791L7.72522 13.4193ZM17.7679 13.4193C14.7518 11.083 10.7414 11.083 7.72522 13.4193L9.56234 15.791C11.497 14.2925 13.9962 14.2925 15.9308 15.791L17.7679 13.4193ZM18.1689 16.576C18.9298 15.5936 18.7503 14.1803 17.7679 13.4193L15.9308 15.791C15.6034 15.5374 15.5435 15.0663 15.7972 14.7388L18.1689 16.576ZM15.0123 16.9769C15.9946 17.7379 17.4079 17.5584 18.1689 16.576L15.7972 14.7388C16.0508 14.4114 16.5219 14.3515 16.8494 14.6052L15.0123 16.9769ZM12.75 15.25C11.0931 15.25 9.75 16.5931 9.75 18.25H12.75V15.25ZM12.7575 15.25H12.75V18.25H12.7575V15.25ZM15.7575 18.25C15.7575 16.5931 14.4144 15.25 12.7575 15.25V18.25H15.7575ZM12.7575 21.25C14.4144 21.25 15.7575 19.9069 15.7575 18.25H12.7575V21.25ZM12.75 21.25H12.7575V18.25H12.75V21.25ZM9.75 18.25C9.75 19.9069 11.0931 21.25 12.75 21.25V18.25H9.75Z" fill="white" mask="url(#path-1-outside-1_216_1899)"/>
</svg>
